
<svg width="82" height="29" viewBox="0 0 82 29" fill="none" xmlns="http://www.w3.org/2000/svg">
  <path d="M33.0835 10.1027C33.0835 10.7178 32.9633 11.2999 32.723 11.8491C32.4901 12.3912 32.1694 12.8709 31.7616 13.2883C31.361 13.6986 30.8874 14.0245 30.3412 14.2661C29.795 14.5078 29.2157 14.6286 28.604 14.6286H22.3872V12.3986H28.604C28.9172 12.3986 29.2122 12.3363 29.4891 12.2119C29.7657 12.0872 30.0061 11.9224 30.2101 11.7173C30.4138 11.505 30.5741 11.2596 30.6907 10.9814C30.8074 10.7033 30.8655 10.4103 30.8655 10.1027C30.8655 9.78773 30.8074 9.49474 30.6907 9.22365C30.5741 8.94552 30.4138 8.70392 30.2101 8.49876C30.0061 8.2936 29.7657 8.13242 29.4891 8.01547C29.2122 7.89077 28.9172 7.82838 28.604 7.82838H21.2179V17.9792H19V5.60938H28.604C29.2157 5.60938 29.795 5.73022 30.3412 5.97182C30.8874 6.20641 31.361 6.52883 31.7616 6.93873C32.1694 7.34162 32.49 7.8178 32.723 8.36694C32.9633 8.9087 33.0835 9.48731 33.0835 10.1027ZM49.6583 11.7726C49.6583 12.6293 49.5236 13.4349 49.2541 14.1892C48.9845 14.9361 48.5987 15.5916 48.0958 16.1556C47.6007 16.7193 47.0034 17.1662 46.3039 17.496C45.6122 17.8181 44.8401 17.9792 43.9877 17.9792H40.0981C39.246 17.9792 38.47 17.8181 37.7709 17.496C37.0718 17.1662 36.4706 16.7193 35.9681 16.1556C35.4727 15.5916 35.0903 14.9361 34.8208 14.1892C34.5512 13.4349 34.4166 12.6293 34.4166 11.7726C34.4166 10.9229 34.5512 10.1246 34.8208 9.37746C35.0903 8.63057 35.4727 7.97867 35.9681 7.42204C36.4706 6.85835 37.0718 6.41513 37.7709 6.09269C38.47 5.77064 39.246 5.6094 40.0981 5.6094H43.9877C44.8401 5.6094 45.6122 5.77064 46.3039 6.09269C47.0034 6.41511 47.6007 6.85833 48.0958 7.42204C48.5986 7.97867 48.9845 8.6306 49.2541 9.37746C49.5236 10.1246 49.6583 10.9229 49.6583 11.7726ZM47.4185 11.7726C47.4185 11.2305 47.3386 10.7213 47.1782 10.2455C47.0253 9.7622 46.7994 9.34449 46.5009 8.99302C46.2095 8.63412 45.8525 8.35207 45.43 8.14728C45.0075 7.93469 44.5269 7.82838 43.9877 7.82838H40.0981C39.5589 7.82838 39.0747 7.93469 38.6448 8.14728C38.2223 8.35207 37.8618 8.63412 37.5634 8.99302C37.272 9.34449 37.046 9.7622 36.8857 10.2455C36.7328 10.7213 36.6563 11.2305 36.6563 11.7726C36.6563 12.3143 36.7328 12.8269 36.8857 13.3102C37.046 13.7864 37.272 14.2038 37.5634 14.5627C37.8618 14.9216 38.2223 15.2072 38.6448 15.4194C39.0747 15.6246 39.5589 15.7273 40.0981 15.7273H43.9877C44.5269 15.7273 45.0075 15.6246 45.43 15.4194C45.8525 15.2072 46.2095 14.9216 46.5009 14.5627C46.7994 14.2038 47.0253 13.7864 47.1782 13.3102C47.3386 12.8269 47.4185 12.3143 47.4185 11.7726ZM66.2113 10.1027C66.2113 10.7178 66.0911 11.2999 65.8508 11.8491C65.6178 12.3912 65.2972 12.8709 64.8891 13.2883C64.4885 13.6986 64.0152 14.0245 63.469 14.2661C62.9224 14.5078 62.3435 14.6286 61.7317 14.6286H55.5146V12.3986H61.7317C62.0446 12.3986 62.3399 12.3363 62.6166 12.2119C62.8935 12.0872 63.1338 11.9224 63.3375 11.7173C63.5416 11.505 63.7019 11.2596 63.8185 10.9814C63.9352 10.7033 63.9933 10.4103 63.9933 10.1027C63.9933 9.78773 63.9352 9.49474 63.8185 9.22365C63.7019 8.94552 63.5416 8.70392 63.3375 8.49876C63.1338 8.2936 62.8935 8.13242 62.6166 8.01547C62.3399 7.89077 62.0446 7.82838 61.7317 7.82838H54.3457V17.9792H52.1278V5.60938H61.7317C62.3435 5.60938 62.9224 5.73022 63.469 5.97182C64.0152 6.20641 64.4885 6.52883 64.8891 6.93873C65.2971 7.34162 65.6178 7.8178 65.8508 8.36694C66.0911 8.9087 66.2113 9.48731 66.2113 10.1027Z" fill="#23262F"/>
  <path d="M81.8376 17.9792H78.9093L74.429 13.3432L69.9604 17.9792H67L72.9543 11.8165L67 5.6094H69.9604L81.8376 17.9792ZM81.8376 5.60938L76.538 11.1351L75.0844 9.60806L78.9092 5.60938H81.8376Z" fill="#3772FF"/>
  <path d="M7.1184 17.1343V19.1121V21.0938H9.15809V9.94756V1.09375H7.1184V10.2422V12.3805V17.1343Z" fill="#3772FF"/>
  <path d="M9.15817 11.9508L13.2319 10.4202C13.5313 10.2736 13.7783 10.1319 13.9423 10.0017C16.2596 8.16024 15.481 4.30469 12.361 3.63092C11.5227 3.44995 10.3728 3.27075 9.15817 3.09307V5.07845C9.80826 5.10178 10.8075 5.32646 11.4192 5.42189C12.2325 5.5491 13.0403 5.63473 13.3144 6.80611C13.5141 7.66051 13.1201 8.42616 12.246 8.78616C11.2475 9.19747 10.1746 9.5611 9.15809 9.94756L9.15817 11.9508Z" fill="#3772FF"/>
  <path d="M7.1184 10.2422L3.01052 11.8484C2.71325 11.999 2.46805 12.144 2.30581 12.2765C0.0137725 14.1486 0.844401 17.9935 3.97319 18.6255C4.79905 18.7923 5.92541 18.9534 7.1184 19.1121V17.1343C6.46754 17.1127 5.49185 16.9078 4.89068 16.8222C4.07562 16.7059 3.26678 16.631 2.97683 15.4635C2.76566 14.6118 3.14919 13.8409 4.01828 13.4694C5.01907 13.0415 6.09583 12.661 7.11414 12.2574L7.1184 12.3805V10.2422Z" fill="#3772FF"/>
  <path d="M9.25809 9.80281C9.59018 9.67774 9.92638 9.5552 10.2629 9.43255C10.9196 9.19317 11.5775 8.95339 12.208 8.6937C12.6265 8.52131 12.9242 8.25451 13.0946 7.93452C13.265 7.61472 13.3119 7.23482 13.217 6.82889C13.0857 6.26763 12.8312 5.97884 12.5212 5.81029C12.2221 5.64762 11.8651 5.59226 11.4814 5.53276L9.25809 9.80281ZM9.25809 9.80281V5.18361C9.55799 5.20276 9.92152 5.25815 10.2859 5.32165C10.449 5.35007 10.6129 5.38023 10.7705 5.40924C11.0027 5.45198 11.2212 5.49221 11.4038 5.52069L9.25809 9.80281ZM7.0184 21.0938V21.1938H7.1184H9.15809H9.25809V21.0938V12.0201L13.2671 10.5138L13.2673 10.5142L13.2759 10.51C13.5771 10.3625 13.8319 10.2171 14.0045 10.08L14.0046 10.08C16.3872 8.18652 15.5854 4.22493 12.3821 3.53318L12.361 3.63092L12.3821 3.53318C11.5598 3.35566 10.4409 3.18019 9.25809 3.00664V1.09375V0.99375H9.15809H7.1184H7.0184V1.09375V10.174L2.9741 11.7553L2.97393 11.7549L2.96532 11.7592C2.66635 11.9107 2.41337 12.0596 2.24257 12.199L2.24255 12.199C-0.114255 14.124 0.74111 18.0747 3.95339 18.7235C4.76284 18.887 5.8578 19.0447 7.0184 19.1996V21.0938ZM7.0184 12.4027V17.0296L4.89068 16.8222L4.90481 16.7232C4.9048 16.7232 4.90478 16.7232 4.90477 16.7232C4.87881 16.7195 4.85297 16.7159 4.82724 16.7122C4.44263 16.6579 4.08482 16.6073 3.78343 16.4486C3.47121 16.2842 3.21282 15.9989 3.07389 15.4395C2.97356 15.0348 3.01537 14.6542 3.18135 14.3322C3.34742 14.0099 3.64145 13.7392 4.05758 13.5614L4.01828 13.4694L4.05759 13.5614C4.68436 13.2934 5.33853 13.045 5.99166 12.797C6.33558 12.6664 6.67921 12.5359 7.0184 12.4027Z" stroke="#3772FF" stroke-width="0.2"/>
  <path d="M49 25.6136C49 24.9589 49.1369 24.3851 49.4106 23.8921C49.6924 23.3915 50.0789 23.0064 50.57 22.7368C51.0612 22.4672 51.6248 22.3324 52.2608 22.3324C53.066 22.3324 53.7302 22.5173 54.2536 22.887C54.785 23.249 55.1433 23.7689 55.3284 24.4467H53.8429C53.7222 24.1309 53.5289 23.8844 53.2632 23.7073C52.9975 23.5301 52.6634 23.4416 52.2608 23.4416C51.6972 23.4416 51.2464 23.6341 50.9082 24.0192C50.5781 24.3966 50.413 24.9281 50.413 25.6136C50.413 26.2991 50.5781 26.8344 50.9082 27.2195C51.2464 27.6046 51.6972 27.7971 52.2608 27.7971C53.0579 27.7971 53.5853 27.4621 53.8429 26.792H55.3284C55.1352 27.439 54.7729 27.955 54.2415 28.3401C53.7101 28.7175 53.0499 28.9062 52.2608 28.9062C51.6248 28.9062 51.0612 28.7715 50.57 28.5019C50.0789 28.2246 49.6924 27.8395 49.4106 27.3466C49.1369 26.8459 49 26.2683 49 25.6136Z" fill="#23262F"/>
  <path d="M60.1425 22.3324C60.6497 22.3324 61.1006 22.4364 61.4951 22.6444C61.8977 22.8523 62.2117 23.1604 62.4372 23.5686C62.6707 23.9769 62.7874 24.4698 62.7874 25.0475V28.8023H61.4227V25.2439C61.4227 24.6739 61.2737 24.2387 60.9758 23.9383C60.6779 23.6303 60.2713 23.4762 59.756 23.4762C59.2407 23.4762 58.8301 23.6303 58.5242 23.9383C58.2263 24.2387 58.0773 24.6739 58.0773 25.2439V28.8023H56.7005V20.2528H58.0773V23.1758C58.3108 22.9062 58.6047 22.6983 58.9589 22.5519C59.3213 22.4056 59.7158 22.3324 60.1425 22.3324Z" fill="#23262F"/>
  <path d="M64.0847 25.5905C64.0847 24.9512 64.2215 24.3851 64.4953 23.8921C64.7771 23.3992 65.1555 23.0179 65.6305 22.7484C66.1136 22.4711 66.645 22.3324 67.2247 22.3324C67.7481 22.3324 68.203 22.4326 68.5894 22.6328C68.984 22.8254 69.298 23.068 69.5315 23.3607V22.4364H70.9203V28.8023H69.5315V27.8549C69.298 28.1553 68.9799 28.4056 68.5774 28.6059C68.1748 28.8061 67.7159 28.9062 67.2006 28.9062C66.6289 28.9062 66.1056 28.7676 65.6305 28.4903C65.1555 28.2054 64.7771 27.8125 64.4953 27.3119C64.2215 26.8036 64.0847 26.2297 64.0847 25.5905ZM69.5315 25.6136C69.5315 25.1745 69.4348 24.7933 69.2416 24.4698C69.0564 24.1463 68.8109 23.8998 68.5049 23.7304C68.1989 23.5609 67.8688 23.4762 67.5146 23.4762C67.1603 23.4762 66.8302 23.5609 66.5242 23.7304C66.2183 23.8921 65.9687 24.1347 65.7755 24.4582C65.5903 24.774 65.4977 25.1514 65.4977 25.5905C65.4977 26.0295 65.5903 26.4146 65.7755 26.7458C65.9687 27.077 66.2183 27.3312 66.5242 27.5083C66.8383 27.6778 67.1684 27.7625 67.5146 27.7625C67.8688 27.7625 68.1989 27.6778 68.5049 27.5083C68.8109 27.3389 69.0564 27.0924 69.2416 26.7689C69.4348 26.4377 69.5315 26.0526 69.5315 25.6136Z" fill="#23262F"/>
  <path d="M73.4292 21.593C73.1796 21.593 72.9702 21.5122 72.8012 21.3504C72.6321 21.1887 72.5475 20.9884 72.5475 20.7496C72.5475 20.5109 72.6321 20.3106 72.8012 20.1489C72.9702 19.9871 73.1796 19.9062 73.4292 19.9062C73.6707 19.9062 73.876 19.9871 74.0451 20.1489C74.2142 20.3106 74.2987 20.5109 74.2987 20.7496C74.2987 20.9884 74.2142 21.1887 74.0451 21.3504C73.876 21.5122 73.6707 21.593 73.4292 21.593ZM74.1055 22.4364V28.8023H72.7287V22.4364H74.1055Z" fill="#23262F"/>
  <path d="M79.2706 22.3324C79.7939 22.3324 80.2609 22.4364 80.6715 22.6444C81.0902 22.8523 81.4163 23.1604 81.6498 23.5686C81.8833 23.9769 82 24.4698 82 25.0475V28.8023H80.6353V25.2439C80.6353 24.6739 80.4863 24.2387 80.1884 23.9383C79.8905 23.6303 79.4839 23.4762 78.9686 23.4762C78.4533 23.4762 78.0427 23.6303 77.7368 23.9383C77.4389 24.2387 77.2899 24.6739 77.2899 25.2439V28.8023H75.9131V22.4364H77.2899V23.1643C77.5153 22.9024 77.8012 22.6983 78.1474 22.5519C78.5016 22.4056 78.876 22.3324 79.2706 22.3324Z" fill="#23262F"/>
</svg>
