<svg width="12" height="16" viewBox="0 0 12 16" fill="none" xmlns="http://www.w3.org/2000/svg">
<path d="M5.28288 12.2284V13.6128V15H6.71066V7.19767V1H5.28288V7.40393V8.90073V12.2284Z" fill="#3772FF"/>
<path d="M6.71072 8.59992L9.56236 7.52848C9.77193 7.42588 9.94482 7.32672 10.0596 7.23554C11.6817 5.94654 11.1367 3.24766 8.95269 2.77602C8.36589 2.64934 7.56093 2.5239 6.71072 2.39953V3.78929C7.16578 3.80562 7.86526 3.9629 8.29347 4.0297C8.86276 4.11875 9.42824 4.17869 9.62006 4.99865C9.7599 5.59673 9.48404 6.13268 8.87223 6.38469C8.17322 6.6726 7.42223 6.92715 6.71066 7.19767L6.71072 8.59992Z" fill="#3772FF"/>
<path d="M5.28288 7.40393L2.40736 8.52827C2.19928 8.63371 2.02764 8.73518 1.91406 8.8279C0.309641 10.1384 0.891081 12.8299 3.08123 13.2722C3.65934 13.389 4.44779 13.5017 5.28288 13.6128V12.2284C4.82728 12.2133 4.1443 12.0698 3.72348 12.0099C3.15294 11.9285 2.58674 11.8761 2.38378 11.0589C2.23596 10.4626 2.50444 9.92301 3.1128 9.66296C3.81335 9.36344 4.56708 9.09706 5.2799 8.81458L5.28288 8.90073V7.40393Z" fill="#3772FF"/>
<path d="M5.18288 15V15.1H5.28288H6.71066H6.81066V15V8.6692L9.59753 7.62209L9.59769 7.62253L9.60632 7.6183C9.81766 7.51484 9.99837 7.41189 10.1218 7.31385L10.1219 7.31383C11.8094 5.97282 11.2411 3.1679 8.97379 2.67827L8.97379 2.67827C8.40305 2.55506 7.62911 2.43336 6.81066 2.31311V1V0.9H6.71066H5.28288H5.18288V1V7.33566L2.37095 8.43514L2.37078 8.4347L2.36216 8.43907C2.15237 8.54537 1.97295 8.65074 1.85082 8.75044L1.85081 8.75045C0.181614 10.1138 0.78779 12.911 3.06144 13.3702C3.62307 13.4837 4.38015 13.593 5.18288 13.7004V15ZM5.18288 8.96025V12.1231L3.7376 11.9109C3.73759 11.9109 3.73758 11.9109 3.73757 11.9109C3.71991 11.9084 3.70236 11.9059 3.68491 11.9035C3.41402 11.8651 3.16854 11.8304 2.96238 11.7219C2.75226 11.6112 2.57628 11.419 2.48084 11.0348C2.41218 10.7579 2.44107 10.499 2.55361 10.2806C2.66624 10.0621 2.86633 9.87707 3.1521 9.75491L3.1128 9.66296L3.15211 9.75491C3.59042 9.56751 4.04716 9.39408 4.50384 9.22067C4.73096 9.13443 4.95806 9.04819 5.18288 8.96025ZM6.81066 7.05301V3.89505L8.27801 4.1285C8.27803 4.1285 8.27804 4.1285 8.27805 4.1285C8.29573 4.13127 8.31331 4.134 8.33078 4.13671C8.60102 4.17865 8.84592 4.21666 9.05054 4.32793C9.25913 4.44136 9.4325 4.63588 9.52269 5.02143C9.58763 5.2992 9.55525 5.5576 9.43975 5.77444C9.32416 5.99147 9.12155 6.17384 8.83414 6.29222C8.39325 6.47382 7.93393 6.64124 7.47469 6.80862C7.25263 6.88956 7.03059 6.97049 6.81066 7.05301Z" stroke="#3772FF" stroke-width="0.2"/>
</svg>
