<svg width="164" height="22" viewBox="0 0 164 22" fill="none" xmlns="http://www.w3.org/2000/svg">
<path d="M35.0835 9.53722C35.0835 10.1523 34.9633 10.7344 34.723 11.2836C34.4901 11.8257 34.1694 12.3054 33.7616 12.7228C33.361 13.1331 32.8874 13.459 32.3412 13.7006C31.795 13.9423 31.2157 14.0631 30.604 14.0631H24.3872V11.8331H30.604C30.9172 11.8331 31.2122 11.7708 31.4891 11.6464C31.7657 11.5217 32.0061 11.3569 32.2101 11.1518C32.4138 10.9395 32.5741 10.6941 32.6907 10.4159C32.8074 10.1378 32.8655 9.8448 32.8655 9.53722C32.8655 9.22223 32.8074 8.92924 32.6907 8.65815C32.5741 8.38002 32.4138 8.13842 32.2101 7.93326C32.0061 7.72809 31.7657 7.56692 31.4891 7.44996C31.2122 7.32527 30.9172 7.26288 30.604 7.26288H23.2179V17.4137H21V5.04387H30.604C31.2157 5.04387 31.795 5.16472 32.3412 5.40632C32.8874 5.6409 33.361 5.96333 33.7616 6.37323C34.1694 6.77612 34.49 7.2523 34.723 7.80144C34.9633 8.3432 35.0835 8.9218 35.0835 9.53722ZM51.6583 11.2071C51.6583 12.0638 51.5236 12.8694 51.2541 13.6237C50.9845 14.3706 50.5987 15.0261 50.0958 15.5901C49.6007 16.1538 49.0034 16.6006 48.3039 16.9305C47.6122 17.2526 46.8401 17.4137 45.9877 17.4137H42.0981C41.246 17.4137 40.47 17.2526 39.7709 16.9305C39.0718 16.6006 38.4706 16.1538 37.9681 15.5901C37.4727 15.0261 37.0903 14.3706 36.8208 13.6237C36.5512 12.8694 36.4166 12.0638 36.4166 11.2071C36.4166 10.3574 36.5512 9.55915 36.8208 8.81196C37.0903 8.06507 37.4727 7.41317 37.9681 6.85654C38.4706 6.29285 39.0718 5.84963 39.7709 5.52719C40.47 5.20514 41.246 5.0439 42.0981 5.0439H45.9877C46.8401 5.0439 47.6122 5.20514 48.3039 5.52719C49.0034 5.84961 49.6007 6.29283 50.0958 6.85654C50.5986 7.41317 50.9845 8.06509 51.2541 8.81196C51.5236 9.55915 51.6583 10.3574 51.6583 11.2071ZM49.4185 11.2071C49.4185 10.665 49.3386 10.1558 49.1782 9.67999C49.0253 9.1967 48.7994 8.77899 48.5009 8.42752C48.2095 8.06861 47.8525 7.78657 47.43 7.58178C47.0075 7.36919 46.5269 7.26288 45.9877 7.26288H42.0981C41.5589 7.26288 41.0747 7.36919 40.6448 7.58178C40.2223 7.78657 39.8618 8.06861 39.5634 8.42752C39.272 8.77899 39.046 9.1967 38.8857 9.67999C38.7328 10.1558 38.6563 10.665 38.6563 11.2071C38.6563 11.7488 38.7328 12.2614 38.8857 12.7447C39.046 13.2209 39.272 13.6383 39.5634 13.9972C39.8618 14.3561 40.2223 14.6417 40.6448 14.8539C41.0747 15.0591 41.5589 15.1618 42.0981 15.1618H45.9877C46.5269 15.1618 47.0075 15.0591 47.43 14.8539C47.8525 14.6417 48.2095 14.3561 48.5009 13.9972C48.7994 13.6383 49.0253 13.2209 49.1782 12.7447C49.3386 12.2614 49.4185 11.7488 49.4185 11.2071ZM68.2113 9.53722C68.2113 10.1523 68.0911 10.7344 67.8508 11.2836C67.6178 11.8257 67.2972 12.3054 66.8891 12.7228C66.4885 13.1331 66.0152 13.459 65.469 13.7006C64.9224 13.9423 64.3435 14.0631 63.7317 14.0631H57.5146V11.8331H63.7317C64.0446 11.8331 64.3399 11.7708 64.6166 11.6464C64.8935 11.5217 65.1338 11.3569 65.3375 11.1518C65.5416 10.9395 65.7019 10.6941 65.8185 10.4159C65.9352 10.1378 65.9933 9.8448 65.9933 9.53722C65.9933 9.22223 65.9352 8.92924 65.8185 8.65815C65.7019 8.38002 65.5416 8.13842 65.3375 7.93326C65.1338 7.72809 64.8935 7.56692 64.6166 7.44996C64.3399 7.32527 64.0446 7.26288 63.7317 7.26288H56.3457V17.4137H54.1278V5.04387H63.7317C64.3435 5.04387 64.9224 5.16472 65.469 5.40632C66.0152 5.6409 66.4885 5.96333 66.8891 6.37323C67.2971 6.77612 67.6178 7.2523 67.8508 7.80144C68.0911 8.3432 68.2113 8.9218 68.2113 9.53722ZM83.5731 5.0439V11.2286C83.5731 12.0857 83.4132 12.8914 83.0925 13.6457C82.7722 14.3926 82.3313 15.0481 81.7704 15.6121C81.2167 16.1688 80.5687 16.6081 79.8255 16.9305C79.0827 17.2526 78.2888 17.4137 77.4438 17.4137H76.209C75.364 17.4137 74.5704 17.2526 73.8272 16.9305C73.0844 16.6006 72.4325 16.1577 71.8715 15.6011C71.3179 15.0371 70.8809 14.3816 70.5603 13.6348C70.24 12.8804 70.0796 12.0783 70.0796 11.2286V5.0439H72.3194V11.2286C72.3194 11.7708 72.4215 12.2834 72.6256 12.7667C72.8293 13.2429 73.1063 13.6602 73.4558 14.0191C73.8128 14.3706 74.2244 14.6491 74.6906 14.8539C75.1638 15.0591 75.6702 15.1618 76.209 15.1618H77.4438C77.9829 15.1618 78.4889 15.0591 78.9625 14.8539C79.4358 14.6491 79.8474 14.3706 80.1969 14.0191C80.5469 13.6602 80.8235 13.2429 81.0275 12.7667C81.2315 12.2834 81.3334 11.7708 81.3334 11.2286V5.0439H83.5731ZM98.3779 17.4137H86.5998V5.0439H88.8395V15.1618H98.3779V17.4137ZM114.362 17.4137H112.123V14.0192H103.502V11.7233H112.123V7.26292H106.299C105.753 7.26292 105.24 7.36923 104.759 7.58183C104.278 7.78661 103.859 8.06866 103.502 8.42756C103.145 8.78647 102.861 9.20739 102.65 9.69101C102.446 10.1669 102.344 10.6795 102.344 11.2287V17.4138H100.082V11.2287C100.082 10.3645 100.246 9.55534 100.574 8.80098C100.902 8.04667 101.346 7.38771 101.907 6.82362C102.468 6.25993 103.127 5.81671 103.885 5.49464C104.642 5.16478 105.447 5 106.299 5H114.362L114.362 17.4137ZM132.073 17.4137H129.026L125.529 14.0631H120.995V11.8331H127.19C127.503 11.8331 127.799 11.7708 128.074 11.6464C128.351 11.5217 128.592 11.3569 128.796 11.1518C129 10.9395 129.16 10.6941 129.276 10.4159C129.393 10.1378 129.452 9.8448 129.452 9.53722C129.452 9.22223 129.393 8.92924 129.276 8.65815C129.16 8.38002 129 8.13842 128.796 7.93326C128.592 7.72809 128.351 7.56692 128.074 7.44996C127.799 7.32527 127.503 7.26288 127.19 7.26288H119.826V17.4137H117.586V5.04387H127.19C127.809 5.04387 128.392 5.16472 128.938 5.40632C129.484 5.6409 129.958 5.96333 130.359 6.37323C130.766 6.77612 131.087 7.2523 131.32 7.80144C131.553 8.3432 131.67 8.92178 131.67 9.5372C131.67 10.0424 131.59 10.5292 131.429 10.998C131.269 11.4597 131.043 11.8845 130.752 12.2725C130.468 12.6533 130.13 12.9828 129.736 13.2613C129.342 13.5394 128.913 13.7446 128.447 13.8764L132.073 17.4137Z" fill="#23262F"/>
<path d="M147.171 17.4138H134.323V5H147.171V7.26293H136.583V15.1399H147.171V17.4138V17.4138ZM145.74 12.2835H137.643V10.0095H145.74V12.2835ZM163.069 17.4138H160.14L155.66 12.7777L151.192 17.4138H148.231L154.185 11.251L148.231 5.04394H151.192L163.069 17.4138L163.069 17.4138ZM163.069 5.04392L157.769 10.5697L156.316 9.04261L160.14 5.04392H163.069H163.069Z" fill="#3772FF"/>
<path d="M7.1184 17.0406V19.0183V21H9.15809V9.85381V1H7.1184V10.1485V12.2868V17.0406Z" fill="#3772FF"/>
<path d="M9.15817 11.857L13.2319 10.3264C13.5313 10.1798 13.7783 10.0382 13.9423 9.90792C16.2596 8.06649 15.481 4.21094 12.361 3.53717C11.5227 3.3562 10.3728 3.177 9.15817 2.99932V4.9847C9.80826 5.00803 10.8075 5.23271 11.4192 5.32814C12.2325 5.45535 13.0403 5.54098 13.3144 6.71236C13.5141 7.56676 13.1201 8.33241 12.246 8.69241C11.2475 9.10372 10.1746 9.46735 9.15809 9.85381L9.15817 11.857Z" fill="#3772FF"/>
<path d="M7.1184 10.1485L3.01052 11.7547C2.71325 11.9053 2.46805 12.0503 2.30581 12.1827C0.0137725 14.0548 0.844401 17.8998 3.97319 18.5317C4.79905 18.6986 5.92541 18.8596 7.1184 19.0183V17.0406C6.46754 17.0189 5.49185 16.814 4.89068 16.7285C4.07562 16.6122 3.26678 16.5373 2.97683 15.3698C2.76566 14.518 3.14919 13.7472 4.01828 13.3757C5.01907 12.9478 6.09583 12.5672 7.11414 12.1637L7.1184 12.2868V10.1485Z" fill="#3772FF"/>
<path d="M9.25809 9.70906C9.59018 9.58399 9.92638 9.46145 10.2629 9.3388C10.9196 9.09942 11.5775 8.85964 12.208 8.59995C12.6265 8.42756 12.9242 8.16076 13.0946 7.84077C13.265 7.52097 13.3119 7.14107 13.217 6.73514C13.0857 6.17388 12.8312 5.88509 12.5212 5.71654C12.2221 5.55387 11.8651 5.49851 11.4814 5.43901L9.25809 9.70906ZM9.25809 9.70906V5.08986C9.55799 5.10901 9.92152 5.1644 10.2859 5.2279C10.449 5.25632 10.6129 5.28648 10.7705 5.31549C11.0027 5.35823 11.2212 5.39846 11.4038 5.42694L9.25809 9.70906ZM7.0184 21V21.1H7.1184H9.15809H9.25809V21V11.9263L13.2671 10.42L13.2673 10.4204L13.2759 10.4162C13.5771 10.2688 13.8319 10.1233 14.0045 9.98623L14.0046 9.98621C16.3872 8.09277 15.5854 4.13118 12.3821 3.43943L12.361 3.53717L12.3821 3.43943C11.5598 3.26191 10.4409 3.08644 9.25809 2.91289V1V0.9H9.15809H7.1184H7.0184V1V10.0802L2.9741 11.6615L2.97393 11.6611L2.96532 11.6655C2.66635 11.817 2.41337 11.9658 2.24257 12.1053L2.24255 12.1053C-0.114255 14.0303 0.74111 17.9809 3.95339 18.6297C4.76284 18.7933 5.8578 18.9509 7.0184 19.1059V21ZM7.0184 12.309V16.9358L4.89068 16.7285L4.90481 16.6295C4.9048 16.6295 4.90478 16.6295 4.90477 16.6295C4.87881 16.6258 4.85297 16.6221 4.82724 16.6185C4.44263 16.5641 4.08482 16.5135 3.78343 16.3549C3.47121 16.1905 3.21282 15.9051 3.07389 15.3457C2.97356 14.941 3.01537 14.5605 3.18135 14.2384C3.34742 13.9162 3.64145 13.6455 4.05758 13.4676L4.01828 13.3757L4.05759 13.4676C4.68436 13.1996 5.33853 12.9512 5.99166 12.7032C6.33558 12.5726 6.67921 12.4421 7.0184 12.309Z" stroke="#3772FF" stroke-width="0.2"/>
</svg>
